<?xml version="1.0" standalone="no"?>
<!DOCTYPE svg PUBLIC "-//W3C//DTD SVG 20010904//EN"
 "http://www.w3.org/TR/2001/REC-SVG-20010904/DTD/svg10.dtd">
<svg version="1.0" xmlns="http://www.w3.org/2000/svg"
 width="635.000000pt" height="132.000000pt" viewBox="0 0 635.000000 132.000000"
 preserveAspectRatio="xMidYMid meet">

<g transform="translate(0.000000,132.000000) scale(0.100000,-0.100000)"
fill="#E2E8F0" stroke="none">
<path d="M5456 1160 c-50 -15 -76 -48 -76 -97 0 -25 5 -53 10 -64 15 -28 63
-49 111 -49 87 0 142 106 89 173 -12 15 -38 31 -58 37 -42 11 -37 11 -76 0z"/>
<path d="M4230 729 c0 -438 3 -470 54 -524 38 -39 116 -60 186 -47 l45 8 -1
44 c-1 76 -13 120 -32 120 -41 0 -42 9 -42 412 l0 388 -105 0 -105 0 0 -401z"/>
<path d="M4630 650 l0 -480 105 0 105 0 0 88 c1 86 1 87 38 130 l37 43 75
-130 74 -131 113 0 c107 0 113 1 104 18 -6 10 -59 95 -118 188 -60 93 -112
174 -116 181 -4 7 35 62 95 135 57 68 109 131 117 141 13 16 6 17 -101 17
l-115 0 -99 -126 -99 -127 -5 264 -5 264 -102 3 -103 3 0 -481z"/>
<path d="M150 615 l0 -447 228 4 c209 4 232 6 286 27 137 54 202 173 165 304
-13 50 -71 113 -116 128 l-35 11 36 30 c53 44 79 101 79 173 0 93 -34 144
-128 187 -47 21 -66 23 -282 26 l-233 4 0 -447z m416 252 c27 -32 30 -66 10
-106 -20 -38 -55 -51 -136 -51 l-70 0 0 96 0 96 86 -3 c79 -4 87 -6 110 -32z
m9 -331 c39 -16 55 -42 55 -86 0 -43 -23 -84 -57 -99 -15 -7 -67 -16 -115 -19
l-88 -5 0 112 0 111 85 0 c51 0 99 -6 120 -14z"/>
<path d="M980 616 l0 -446 110 0 110 0 0 149 0 149 108 4 c128 6 201 30 261
88 59 57 74 93 79 188 8 147 -33 224 -150 278 -63 29 -63 29 -290 32 l-228 4
0 -446z m410 256 c66 -33 78 -131 22 -192 -28 -31 -93 -50 -173 -50 l-39 0 0
130 0 130 78 0 c53 0 88 -5 112 -18z"/>
<path d="M2010 975 l0 -84 118 -3 117 -3 3 -358 2 -357 105 0 105 0 0 360 0
360 120 0 120 0 0 85 0 85 -345 0 -345 0 0 -85z"/>
<path d="M5829 940 l-12 -90 -38 0 c-66 0 -69 -4 -69 -86 l0 -74 45 0 45 0 0
-122 c1 -294 44 -383 196 -408 57 -9 180 2 196 18 3 4 -1 39 -9 79 l-16 72
-48 -6 c-42 -5 -50 -2 -73 20 -26 26 -26 27 -26 187 l0 160 80 0 80 0 0 80 0
80 -80 0 -80 0 0 90 0 90 -89 0 -89 0 -13 -90z"/>
<path d="M2909 855 c-146 -47 -239 -179 -239 -340 0 -161 84 -291 222 -341 24
-9 75 -16 115 -17 61 0 81 4 137 32 126 62 188 168 188 321 0 149 -68 267
-186 325 -67 33 -170 42 -237 20z m148 -175 c75 -45 85 -255 16 -325 -39 -38
-105 -36 -143 5 -34 36 -44 88 -38 190 4 75 24 114 69 137 34 18 59 16 96 -7z"/>
<path d="M3669 855 c-146 -47 -239 -179 -239 -340 0 -161 84 -291 222 -341 24
-9 75 -16 115 -17 61 0 81 4 137 32 126 62 188 168 188 321 0 149 -68 267
-186 325 -67 33 -170 42 -237 20z m148 -175 c75 -45 85 -255 16 -325 -39 -38
-105 -36 -143 5 -34 36 -44 88 -38 190 4 75 24 114 69 137 34 18 59 16 96 -7z"/>
<path d="M5390 510 l0 -340 105 0 105 0 0 340 0 340 -105 0 -105 0 0 -340z"/>
</g>
</svg>